<svg id="Layer_1" data-name="Layer 1" xmlns="http://www.w3.org/2000/svg" viewBox="0 0 168 55.57"><defs><style>.cls-1{font-size:28px;font-family:Rubik-Bold, Rubik;font-weight:700;}.cls-1,.cls-4{fill:#fff;}.cls-2{letter-spacing:-0.02em;}.cls-3{fill:#415a77;}.cls-5{letter-spacing:-0.01em;}.cls-6{letter-spacing:-0.01em;}</style></defs><title>ITK-logo</title><text class="cls-1" transform="translate(56.83 23.8)">IN<tspan class="cls-2" x="29.4" y="0"> </tspan><tspan x="34.64" y="0">THE</tspan></text><rect class="cls-3" y="3.64" width="44" height="44" rx="6.56" ry="6.56"/><path class="cls-4" d="M39.44,21.93l-7.95-.76a1.37,1.37,0,0,1-1.14-.84l-2.85-6.9a1.36,1.36,0,0,0-2.52,0l-2.83,6.9a1.33,1.33,0,0,1-1.14.84l-8,.76a1.37,1.37,0,0,0-.77,2.39l6,5.26a1.34,1.34,0,0,1,.43,1.34l-1.8,7.38a1.38,1.38,0,0,0,2,1.51l6.63-3.9a1.38,1.38,0,0,1,1.39,0l6.63,3.9a1.37,1.37,0,0,0,2-1.51l-1.77-7.38a1.34,1.34,0,0,1,.43-1.34l6-5.26A1.39,1.39,0,0,0,39.44,21.93Z" transform="translate(-5 -1.36)"/><text class="cls-1" transform="translate(57.09 47.36)">KN<tspan class="cls-5" x="38.89" y="0">O</tspan><tspan class="cls-6" x="58.69" y="0">W</tspan></text></svg>