<svg id="Layer_1" data-name="Layer 1" xmlns="http://www.w3.org/2000/svg" viewBox="0 0 244 37"><defs><style>.cls-1{font-size:26px;font-family:Rubik-Bold, Rubik;font-weight:700;}.cls-1,.cls-6{fill:#fff;}.cls-2{letter-spacing:-0.02em;}.cls-3{letter-spacing:-0.01em;}.cls-4{letter-spacing:-0.01em;}.cls-5{fill:#415a77;}</style></defs><title>ITK-logo2</title><text class="cls-1" transform="translate(38.88 22.74)">IN<tspan class="cls-2" x="27.3" y="0"> </tspan><tspan x="32.16" y="0">THE KN</tspan><tspan class="cls-3" x="126.39" y="0">O</tspan><tspan class="cls-4" x="144.77" y="0">W</tspan></text><rect class="cls-5" x="9" width="27" height="27" rx="6.56" ry="6.56"/><path class="cls-6" d="M24.13,24.39l-4.87-.46a.85.85,0,0,1-.7-.52l-1.75-4.24a.83.83,0,0,0-1.55,0l-1.74,4.24a.83.83,0,0,1-.69.52L8,24.39a.84.84,0,0,0-.48,1.46l3.68,3.23a.84.84,0,0,1,.26.83l-1.1,4.53a.84.84,0,0,0,1.24.92L15.62,33a.81.81,0,0,1,.85,0l4.07,2.39a.84.84,0,0,0,1.24-.92l-1.09-4.53a.84.84,0,0,1,.27-.83l3.68-3.23A.85.85,0,0,0,24.13,24.39Z" transform="translate(6 -14)"/></svg>